<?xml version="1.0" encoding="UTF-8" standalone="no"?>
<!-- Created with Inkscape (http://www.inkscape.org/) -->

<svg
   width="120"
   height="120"
   viewBox="0 0 120 120"
   version="1.1"
   id="svg1"
   sodipodi:docname="clock_and_gwj_mascot_vector.svg"
   inkscape:export-filename="clock_and_gwj_mascot_80x80.png"
   inkscape:export-xdpi="64"
   inkscape:export-ydpi="64"
   inkscape:version="1.4 (e7c3feb100, 2024-10-09)"
   xmlns:inkscape="http://www.inkscape.org/namespaces/inkscape"
   xmlns:sodipodi="http://sodipodi.sourceforge.net/DTD/sodipodi-0.dtd"
   xmlns="http://www.w3.org/2000/svg"
   xmlns:svg="http://www.w3.org/2000/svg">
  <sodipodi:namedview
     id="namedview1"
     pagecolor="#ffffff"
     bordercolor="#000000"
     borderopacity="0.25"
     inkscape:showpageshadow="2"
     inkscape:pageopacity="0.0"
     inkscape:pagecheckerboard="0"
     inkscape:deskcolor="#d1d1d1"
     inkscape:document-units="px"
     inkscape:zoom="21.94388"
     inkscape:cx="55.163443"
     inkscape:cy="75.647514"
     inkscape:window-width="3840"
     inkscape:window-height="2123"
     inkscape:window-x="3840"
     inkscape:window-y="0"
     inkscape:window-maximized="1"
     inkscape:current-layer="layer1" />
  <defs
     id="defs1" />
  <g
     inkscape:label="Layer 1"
     inkscape:groupmode="layer"
     id="layer1">
    <g
       id="g7"
       style="display:inline"
       transform="matrix(1.3542186,0,0,1.3542186,-48.494564,-26.764074)">
		<g
   id="g2">
			<path
   class="st0"
   d="m 119.1,55.1 c 2,-1.3 3.9,-2.8 4.7,-3.4 0.5,-0.4 0.3,-0.9 -0.5,-0.8 -1.8,0.1 -3.7,0.6 -6,1.2 -1.4,0.4 -4.7,1.3 -4.9,2.3 -0.2,0.9 0.2,1.5 0.6,2.7 0.4,1.2 0.1,3.1 -0.7,4.9 4.3,-2.2 3.8,-4.8 6.8,-6.9 z"
   id="path1"
   style="fill:#f0624b" />

		</g>

		<g
   id="g3">
			<path
   class="st0"
   d="m 108.5,55.1 c -2.3,0.2 -5.1,0.3 -9.5,1.8 -4,1.3 -6.3,2.4 -7.8,4.5 -1.9,2.6 -2.9,6.8 -3.3,9 -0.3,1.8 -0.9,5.6 -1,6.3 0.1,2.5 -0.7,4.6 -2.5,5.5 -2.9,1.6 -3.8,3.1 -3.9,4.3 0,1.1 0.7,2.2 1.6,2.8 1.3,0.9 1.9,-0.4 1.9,-0.4 0,0 0.6,1.3 0.8,1.3 1.9,0.4 4.3,0.9 6.3,-0.7 C 89.2,88 88.2,87 88.2,87 c 0,0 1.9,0.7 3.3,1.9 0.5,-0.3 2.5,-2.7 2.8,-3.3 -1.6,-0.9 -3.1,-1.9 -3.1,-1.9 0,0 2.1,0.4 3.8,1 0.4,-0.3 1.9,-3.6 2,-4.1 -1,-0.5 -2.6,-1.3 -2.6,-1.3 0,0 2.1,0.2 3.2,0.5 0.3,-1.3 0.2,-2.3 0,-2.9 0.3,-0.5 -0.1,-2.7 0.4,-3.7 2.3,-5 3.7,-4.3 6,-6 1,-0.8 1.9,-4.1 1.9,-4.1 0,0 0.3,0.1 0.4,0.4 0.1,0.3 0.3,1 0.3,1 0,0 2.2,-3.7 2.4,-5.6 0.3,-2.4 -0.5,-3.8 -0.5,-3.8 z m -13.2,13 c -1.2,0.3 -2.3,1.5 -2.6,1.5 -0.2,0 -0.3,-1.1 -0.6,-1.6 -0.3,-0.5 -0.6,-0.7 -0.7,-1.2 -0.3,-1.5 -0.2,-2.2 0.5,-3.2 0.9,-1.2 1.2,-1.9 3.8,-2.3 1.5,-0.2 5.2,-1 5.2,-1 0,0 -0.4,1.4 -1.5,2.6 -1.5,1.6 -2,4.6 -4.1,5.2 z"
   id="path2"
   style="fill:#f0624b" />

		</g>

		<g
   id="g4">
			<path
   class="st0"
   d="m 96.4,65.8 c -0.2,-1.3 0,-2.6 -1.9,-2.1 -1,0.2 -1.9,1 -1.9,2.1 0,1.2 0.8,2.1 1.9,2.1 1.1,0 2.1,-1 1.9,-2.1 z m -2.2,0.7 c -0.1,0 -0.2,-0.1 -0.2,-0.2 0,-0.1 0.1,-0.2 0.2,-0.2 0.1,0 0.2,0.1 0.2,0.2 0,0.1 -0.1,0.2 -0.2,0.2 z m 0.7,0.1 c -0.1,0 -0.2,-0.1 -0.2,-0.3 0,-0.1 0.1,-0.3 0.2,-0.3 0.1,0 0.2,0.1 0.2,0.3 0,0.2 -0.1,0.3 -0.2,0.3 z m -0.3,-0.4 c -0.2,0 -0.4,-0.2 -0.4,-0.6 0,-0.3 0.2,-0.6 0.4,-0.6 0.2,0 0.4,0.2 0.4,0.6 0.1,0.3 -0.1,0.6 -0.4,0.6 z"
   id="path3"
   style="fill:#f0624b" />

		</g>

		<g
   id="g5">
			<path
   class="st0"
   d="m 80.5,83.5 c 0.4,-0.2 1.4,-0.9 1.2,-1.3 -0.5,-1.6 0.8,-3.6 1.9,-4 0.5,-0.1 0.1,2.3 -0.7,3 -0.5,0.5 -0.4,0.9 -0.2,0.8 3.3,-2.1 3,-4.1 2.4,-5 -0.5,-0.8 -1.5,-1 -3,-1.1 -1.3,-0.1 -2.7,-0.1 -2.7,-0.1 v 7.9 c 0.1,0 0.5,0 1.1,-0.2 z"
   id="path4"
   style="fill:#f0624b" />

		</g>

		<g
   id="g6">
			<path
   class="st0"
   d="m 121.8,54.5 c 0,0 -2.5,1.4 -3.8,3.7 -2.5,4.5 -6.3,5.4 -7.4,5.7 -0.1,-1 1.7,-4.1 1.3,-6.4 -0.4,-2 -1.6,-2.1 -0.5,-3.9 0.6,-1.1 3.2,-2 5.6,-2.6 0.6,-0.1 1.8,-0.4 2.1,-0.5 1.5,-0.3 2.4,-0.4 3.1,-1.3 0.7,-0.8 0.5,-1.7 0.5,-1.7 0,0 -1.4,0.6 -2.9,-0.4 -1.9,-1.2 0.4,-3.3 -2.9,-6.3 -2,-1.8 -4.7,-1.4 -4.7,-1.4 0,0 1.6,-1.1 3.5,-1 1.8,0.1 3.1,0.4 5,2.7 -1,-4.6 -3.3,-6.3 -5.6,-7.5 -2.2,-1.2 -5.7,-1.5 -8.1,-1.3 0,0 0.9,-1.2 2.5,-1.7 2.2,-0.7 3.6,-0.5 4.7,-0.1 -0.8,-1.6 -3.7,-3 -7.7,-3.2 -4.7,-0.3 -8.7,1.4 -8.7,1.4 0,0 -0.4,-0.8 1.2,-1.7 2,-1.2 4.5,-1.4 5.6,-1 -0.7,-0.9 -3.7,-2.4 -9,-1.5 -3.3,0.5 -4.7,1.1 -4.7,1.1 0,0 0.1,-0.9 0.8,-1.5 0.7,-0.6 1.7,-0.9 2.5,-1 -0.5,-0.4 -3.6,-0.7 -6.6,-0.9 -3.8,-0.3 -8.2,-0.3 -8.2,-0.3 v 9.1 29.8 5.3 8.8 c 0,0 0.5,0 1,0 0.1,0 0.3,-1.4 0.3,-1.4 0,0 0.3,0.6 0.2,1.4 0.5,0 0.9,0 1.6,0.1 0.6,0 0.9,0 1.4,0.1 0.3,-0.5 0.7,-5.5 0.7,-5.5 0,0 0.6,2.5 0.1,5.7 0.5,0.2 0.8,0.5 0.8,0.5 0,0 0.6,-3.5 1.3,-7 0,-0.2 0.1,-0.3 0.1,-0.5 0,0 0,0 0,-0.1 0,-0.2 0.1,-0.4 0.1,-0.5 0,0 0,-0.1 0,-0.1 0,-0.1 0.1,-0.3 0.1,-0.4 0,0 0,-0.1 0,-0.1 0,-0.2 0.1,-0.3 0.1,-0.5 0,0 0,0 0,0 0.2,-0.7 0.3,-1.4 0.5,-2 0.9,-3.4 2.7,-5.7 5.7,-7.1 3.1,-1.4 4.7,-2.1 8.9,-2.9 2.8,-0.5 4.3,-0.7 7,-0.7 1.5,3.7 0.7,7.3 -1.7,10.9 -1,1.6 -1.4,3 -2.7,4.5 -0.3,0.3 -2.7,1 -3.1,1.4 -0.5,0.4 -3,6.6 -2.8,8.6 -0.1,0.3 -0.1,0.6 -0.2,0.9 0.7,0.2 2,0.6 3.3,1 3.1,1.1 6.2,2.5 6,2.6 0,0 -3.7,-1 -5.8,-1.7 -1.7,-0.5 -3,-0.8 -3.7,-0.9 -0.4,1.3 -1,2.8 -1.7,4.2 0.3,0.1 0.7,0.3 1.2,0.5 2.1,0.9 5.2,3 5.2,3 0,0 -2.5,-1 -5.5,-2 -0.6,-0.2 -1.1,-0.4 -1.5,-0.5 -0.4,0.6 -0.7,1.1 -1.2,1.6 -0.4,0.5 -1,1.3 -1.9,2.1 0.2,0.2 0.5,0.3 0.7,0.5 0.7,0.5 2.8,2.5 2.8,2.5 0,0 -2.1,-1.2 -2.9,-1.7 -0.4,-0.2 -0.8,-0.5 -1.1,-0.7 -0.9,0.8 -2.1,1.6 -3.7,2.3 -1.9,0.8 -3.3,-0.6 -5.1,-1.2 -1.8,-0.7 -3.3,-1.2 -3.3,-1.2 l -1.1,-0.1 v 3.7 c 0,0 0,0 0,0 0.6,0 1.2,0 1.8,0 0.6,0 1.2,0 1.8,-0.2 -0.2,0.3 -0.5,0.4 -0.8,0.6 -0.3,0.1 -0.6,0.3 -0.9,0.3 -0.6,0.2 -1.3,0.2 -1.9,0.2 0,0 0,0 0,0 v 11.4 c 0,0 1.8,-1.3 4.3,-8.2 0.4,1.7 -0.4,5.2 -0.4,5.2 0,0 3.6,-3 3.9,-6.2 0.6,1.2 0.2,2.2 0,3.9 2.8,-1.8 5.6,-5.5 7.4,-8 -0.2,1.1 -0.4,2.4 -0.5,3.8 0.8,-1.4 2.5,-2.7 3.7,-3.3 1.3,-0.6 2.3,-3.2 2.3,-3.6 0.3,0.4 0.1,2.6 0.1,2.6 0,0 3.8,-1.6 5.5,-3.3 1.5,-1.5 2.5,-2.2 3.2,-3.7 0.8,-1.7 0.4,-4.4 -0.1,-5.6 0,0 1.1,0.9 1.4,2.6 0.4,2.1 0.2,3.3 0.2,3.3 0,0 7.6,-5.1 6.7,-14.8 -0.1,-1.3 -1,-4.3 -1,-4.3 0,0 1.1,0.9 1.5,2.4 0.6,1.7 0.5,3.1 0.5,3.1 0,0 2.1,-3.5 2.4,-6.9 0.5,-5.4 0.1,-7.2 0.1,-7.2 0,0 0.4,0.3 0.7,0.9 0.2,0.4 0.4,1 0.4,1.7 0.4,-0.3 0.8,-2.3 0.6,-4.4 -0.1,-1.7 -0.6,-2 -0.6,-2 z m -36.3,-15 c 0.2,-1.5 0.7,-2.9 1.2,-4.3 0.5,-1.4 1.3,-2.7 2.2,-3.9 0.9,-1.2 2,-2.2 3.2,-3.1 l 0.1,0.1 c -1.1,1 -2,2.1 -2.8,3.3 -0.8,1.2 -1.4,2.5 -1.8,3.9 -0.4,1.4 -0.6,2.8 -1,4.2 -0.3,1.4 -0.6,2.8 -0.9,4.3 h -0.1 c -0.4,-1.5 -0.3,-3 -0.1,-4.5 z m 7.3,2.9 c -2,2 -3.7,4.1 -5,6.6 -1.3,2.4 -2.2,5 -3,7.7 -0.9,2.6 -1.6,5.3 -2.2,8 h -0.1 c 0,-1.4 0.2,-2.8 0.5,-4.2 0.2,-1.4 0.6,-2.8 0.9,-4.1 0.8,-2.7 1.9,-5.3 3.3,-7.8 1.4,-2.5 3.3,-4.6 5.3,-6.5 2.1,-1.9 4.3,-3.6 6.7,-5 v 0.1 c -2.3,1.5 -4.4,3.3 -6.4,5.2 z m 16.7,2 c -1.8,0.4 -3.5,1 -5.1,1.9 -1.6,0.9 -2.9,2.1 -4.3,3.3 -1.4,1.2 -2.6,2.5 -3.9,3.9 l -0.1,-0.1 c 0.4,-0.8 1,-1.6 1.5,-2.4 0.6,-0.7 1.2,-1.5 1.8,-2.1 1.3,-1.3 2.9,-2.4 4.6,-3.3 1.7,-0.8 3.5,-1.4 5.4,-1.7 1.8,-0.3 3.7,-0.4 5.6,-0.2 v 0.1 c -1.8,0 -3.7,0.2 -5.5,0.6 z"
   id="path5"
   style="fill:#f0624b" />

		</g>

	</g>
    <path
       id="path68"
       style="fill:none;stroke:#f0624b;stroke-width:3.94888;stroke-dasharray:none"
       d="m 56.601147,67.580894 c -4.430131,0 -8.021465,-3.591333 -8.021465,-8.021465 0,-4.430133 3.591334,-8.021465 8.021465,-8.021465"
       sodipodi:nodetypes="csc" />
    <path
       style="fill:none;fill-opacity:1;stroke:#f0624b;stroke-width:3.94888;stroke-dasharray:none;stroke-opacity:1"
       d="M 47.135514,65.681002 18.156168,82.641325"
       id="path69" />
    <path
       style="fill:#f0624b;fill-opacity:1;stroke:#f0624b;stroke-width:3.94888;stroke-dasharray:none;stroke-opacity:1"
       d="M 48.975417,50.99966 35.135504,35.349014"
       id="path70" />
    <rect
       style="fill:#f0624b;fill-opacity:1;stroke:#f0624b;stroke-width:1.55181;stroke-dasharray:none;stroke-opacity:1"
       id="rect70"
       width="2.2305307"
       height="9.1568165"
       x="53.671917"
       y="4.5057068" />
    <rect
       style="fill:#f0624b;fill-opacity:1;stroke:#f0624b;stroke-width:2.28128;stroke-dasharray:none;stroke-opacity:1"
       id="rect70-6"
       width="5.278667"
       height="8.3619995"
       x="-62.573421"
       y="1.6050645"
       transform="rotate(-90)" />
    <rect
       style="fill:#f0624b;fill-opacity:1;stroke:#f0624b;stroke-width:2.28131;stroke-dasharray:none;stroke-opacity:1"
       id="rect70-5"
       width="5.2479982"
       height="8.4110575"
       x="16.132505"
       y="25.836645"
       transform="matrix(0.86433185,-0.50292192,0.49708376,0.86770256,0,0)" />
    <rect
       style="fill:#f0624b;fill-opacity:1;stroke:#f0624b;stroke-width:2.28131;stroke-dasharray:none;stroke-opacity:1"
       id="rect70-6-3"
       width="5.2684646"
       height="8.3783836"
       x="-83.428101"
       y="-36.401829"
       transform="matrix(-0.49708376,-0.86770256,0.86433185,-0.50292192,0,0)" />
    <rect
       style="fill:#f0624b;fill-opacity:1;stroke:#f0624b;stroke-width:2.28131;stroke-dasharray:none;stroke-opacity:1"
       id="rect71"
       width="5.2684646"
       height="8.3783836"
       x="-26.360722"
       y="25.645044"
       transform="matrix(0.49708376,-0.86770256,0.86433185,0.50292192,0,0)" />
    <rect
       style="fill:#f0624b;fill-opacity:1;stroke:#f0624b;stroke-width:2.28131;stroke-dasharray:none;stroke-opacity:1"
       id="rect72"
       width="5.2479982"
       height="8.4110575"
       x="-83.012794"
       y="-79.099915"
       transform="matrix(-0.86433185,-0.50292192,0.49708376,-0.86770256,0,0)" />
    <rect
       style="fill:#f0624b;fill-opacity:1;stroke:#f0624b;stroke-width:1.53291;stroke-dasharray:none;stroke-opacity:1"
       id="rect73"
       width="2.1720915"
       height="9.1757021"
       x="53.84626"
       y="106.68941" />
  </g>
</svg>
