<?xml version="1.0" encoding="UTF-8" standalone="no"?>
<!-- Created with Inkscape (http://www.inkscape.org/) -->

<svg
   width="120"
   height="120"
   viewBox="0 0 120 120"
   version="1.1"
   id="svg1"
   xml:space="preserve"
   xmlns="http://www.w3.org/2000/svg"
   xmlns:svg="http://www.w3.org/2000/svg"><defs
     id="defs1" /><g
     id="layer1"><g
       id="g1"
       transform="matrix(0.31619651,0,0,0.31619651,-20.844052,-20.519166)"><g
         id="BG" /><g
         id="Layer_3">	<path
   class="st0"
   d="m 393.7,247.2 c 3.4,-7.6 4.7,-15.5 3.1,-20.6 -1.6,-5.1 -3.3,-7.6 -2.4,-11.5 0.9,-3.9 14.8,-8 20.6,-9.6 9.5,-2.6 17.8,-4.5 25.2,-5 3.5,-0.2 4.5,1.7 2.2,3.4 -3.6,2.7 -11.3,8.8 -19.8,14.4 -12.9,8.5 -10.5,19.7 -28.9,28.9 z m -13.8,-12.8 c -0.9,7.8 -10.3,23.4 -10.3,23.4 0,0 -0.7,-2.6 -1.1,-4.1 -0.4,-1.5 -1.6,-1.8 -1.6,-1.8 0,0 -3.5,13.9 -7.9,17.3 -9.6,7.4 -15.7,4.4 -25.3,25.3 -2,4.4 -0.3,13.6 -1.7,15.7 0.7,2.3 1.5,6.4 0,12 -4.7,-1.5 -13.6,-2.3 -13.6,-2.3 0,0 6.8,3.4 11.1,5.6 -0.4,2.3 -6.8,15.9 -8.4,17.3 -7.1,-2.7 -15.8,-4.4 -15.8,-4.4 0,0 6.2,3.9 13,7.8 -1,2.6 -9.5,13 -11.6,14.1 -6,-5.2 -14,-8.1 -14,-8.1 0,0 4.3,4.4 12,11.2 -8.4,6.5 -18.7,4.5 -26.5,2.9 -0.8,-0.2 -3.5,-5.4 -3.5,-5.4 0,0 -2.3,5.3 -7.8,1.5 -3.5,-2.4 -6.7,-7 -6.5,-11.7 0.2,-5 4.1,-11.6 16.3,-18.2 7.4,-4 10.9,-12.9 10.4,-23.2 0.5,-3.1 2.8,-19.3 4.2,-26.6 1.8,-9.2 6,-26.9 13.9,-37.9 6.6,-9.1 16.1,-13.4 32.9,-19 18.7,-6.2 30.1,-6.5 40,-7.5 -0.1,-0.3 3.1,5.7 1.8,16.1 z m -40,16.2 c 4.7,-4.9 6.3,-11 6.3,-11 0,0 -15.4,3.2 -21.6,4.2 -11,1.7 -12.2,4.5 -16.1,9.7 -3,4 -3.3,7 -2.2,13.5 0.3,2 1.7,2.9 2.9,5.1 1.3,2.4 1.6,6.9 2.4,6.8 1.2,-0.1 5.7,-4.8 10.8,-6.2 8.8,-2.5 10.9,-15.2 17.5,-22.1 z m -20.4,21.2 c -4.3,0 -7.8,-4 -7.8,-8.9 0,-4.9 3.6,-8 7.8,-8.9 7.8,-1.8 6.9,3.4 7.8,8.9 0.8,4.8 -3.5,8.9 -7.8,8.9 z m -0.9,-6.6 c 0,-0.4 -0.3,-0.7 -0.7,-0.7 -0.4,0 -0.7,0.3 -0.7,0.7 0,0.4 0.3,0.7 0.7,0.7 0.4,-0.1 0.7,-0.4 0.7,-0.7 z m 3,0.1 c 0,-0.6 -0.4,-1.1 -0.8,-1.1 -0.4,0 -0.8,0.5 -0.8,1.1 0,0.6 0.4,1.1 0.8,1.1 0.4,0 0.8,-0.5 0.8,-1.1 z m 0,-3.1 c 0,-1.3 -0.8,-2.3 -1.9,-2.3 -1,0 -1.9,1 -1.9,2.3 0,1.3 0.8,2.3 1.9,2.3 1,0 1.9,-1 1.9,-2.3 z m -203.3,-15 c -3.4,-7.6 -4.7,-15.5 -3.1,-20.6 1.6,-5.1 3.3,-7.6 2.4,-11.5 -0.9,-3.9 -14.8,-8 -20.6,-9.6 -9.5,-2.6 -17.8,-4.5 -25.2,-5 -3.5,-0.2 -4.5,1.7 -2.2,3.4 3.6,2.7 11.3,8.8 19.8,14.4 12.9,8.5 10.5,19.7 28.9,28.9 z M 134,218 c 9.8,1 21.3,1.4 40,7.5 16.8,5.5 26.4,9.9 32.9,19 7.9,11 12.1,28.7 13.9,37.9 1.4,7.4 3.7,23.6 4.2,26.6 -0.5,10.3 3,19.2 10.4,23.2 12.2,6.6 16.2,13.2 16.3,18.2 0.2,4.7 -3,9.3 -6.5,11.7 -5.5,3.8 -7.8,-1.5 -7.8,-1.5 0,0 -2.7,5.3 -3.5,5.4 -7.8,1.6 -18.1,3.6 -26.5,-2.9 7.7,-6.8 12,-11.2 12,-11.2 0,0 -8.1,2.9 -14,8.1 -2,-1.1 -10.6,-11.5 -11.6,-14.1 6.8,-3.9 13,-7.8 13,-7.8 0,0 -8.7,1.7 -15.8,4.4 -1.6,-1.4 -8,-15 -8.4,-17.3 4.3,-2.2 11.1,-5.6 11.1,-5.6 0,0 -8.9,0.8 -13.6,2.3 -1.5,-5.6 -0.7,-9.7 0,-12 -1.4,-2 0.3,-11.3 -1.7,-15.7 -9.6,-20.9 -15.7,-17.9 -25.3,-25.3 -4.4,-3.4 -7.9,-17.3 -7.9,-17.3 0,0 -1.1,0.3 -1.6,1.8 -0.4,1.5 -1.1,4.1 -1.1,4.1 0,0 -9.3,-15.6 -10.3,-23.4 C 130.8,224 134,218 134,218 Z m 55.6,54.6 c 5.1,1.4 9.6,6.1 10.8,6.2 0.8,0.1 1.1,-4.4 2.4,-6.8 1.2,-2.1 2.5,-3.1 2.9,-5.1 1.2,-6.5 0.8,-9.4 -2.2,-13.5 -3.8,-5.2 -5.1,-8 -16.1,-9.7 -6.3,-1 -21.6,-4.2 -21.6,-4.2 0,0 1.7,6.1 6.3,11 6.6,7 8.7,19.7 17.5,22.1 z m -4.9,-9.8 c 0.9,-5.6 0,-10.7 7.8,-8.9 4.2,1 7.8,4 7.8,8.9 0,4.9 -3.5,8.9 -7.8,8.9 -4.3,0.1 -8.6,-4 -7.8,-8.9 z m 9.3,3 c 0.4,0 0.7,-0.3 0.7,-0.7 0,-0.4 -0.3,-0.7 -0.7,-0.7 -0.4,0 -0.7,0.3 -0.7,0.7 0.1,0.4 0.4,0.7 0.7,0.7 z m -2.8,0.5 c 0.4,0 0.8,-0.5 0.8,-1.1 0,-0.6 -0.4,-1.1 -0.8,-1.1 -0.4,0 -0.8,0.5 -0.8,1.1 0,0.7 0.4,1.1 0.8,1.1 z m 1.1,-1.8 c 1,0 1.9,-1 1.9,-2.3 0,-1.3 -0.8,-2.3 -1.9,-2.3 -1,0 -1.9,1 -1.9,2.3 0,1.3 0.9,2.3 1.9,2.3 z m 87.7,45.6 c -2.1,-3.4 -6.3,-4.1 -12.5,-4.6 -5.6,-0.5 -11.5,-0.4 -11.5,-0.4 0,0 -5.9,0 -11.5,0.4 -6.2,0.5 -10.4,1.3 -12.5,4.6 -2.4,3.8 -3.5,12 10.2,21 0.7,0.5 1.1,-1.4 -1,-3.4 -3.2,-3.1 -4.9,-13.2 -2.9,-12.7 4.9,1.4 10.2,10.1 8.1,16.7 -0.5,1.7 3.4,4.8 5.2,5.5 2.8,1.1 4.5,1.1 4.5,1.1 0,0 1.7,0 4.5,-1.1 1.8,-0.7 5.7,-3.8 5.2,-5.5 -2.1,-6.5 3.2,-15.3 8.1,-16.7 2,-0.6 0.3,9.6 -2.9,12.7 -2.1,2 -1.6,3.9 -1,3.4 13.5,-9 12.4,-17.1 10,-21 z m 156.6,-86.4 c 0.9,8.9 -0.9,17.4 -2.6,18.7 -0.1,-3 -0.8,-5.3 -1.8,-7.1 -1.3,-2.6 -3,-3.7 -3,-3.7 0,0 1.8,7.6 -0.3,30.3 -1.3,14.4 -10.1,28.9 -10.1,28.9 0,0 0.2,-5.9 -2.1,-13.1 -2,-6.1 -6.5,-10 -6.5,-10 0,0 3.7,12.7 4.2,18.1 3.9,40.7 -28.1,62.2 -28.1,62.2 0,0 0.8,-4.9 -1,-13.8 -1.3,-6.8 -6,-10.8 -6,-10.8 2.4,4.9 3.9,16.2 0.5,23.4 -2.9,6.2 -6.8,8.9 -13.3,15.3 -7.2,7.1 -23.3,13.8 -23.3,13.8 0,0 0.9,-9.2 -0.3,-11 0.1,1.8 -4.3,12.7 -9.6,15.3 -4.9,2.3 -12.1,7.7 -15.5,13.8 0.6,-5.9 1.2,-11.2 2.1,-15.9 -7.3,10.4 -19.1,25.9 -31,33.5 0.9,-7.2 2.6,-11.3 0,-16.4 -1.5,13.3 -16.5,26.1 -16.5,26.1 0,0 3.2,-14.4 1.7,-21.8 -10.6,29 -18.1,34.3 -18.1,34.3 0,0 -7.5,-5.3 -18.1,-34.3 -1.5,7.3 1.7,21.8 1.7,21.8 0,0 -15,-12.8 -16.5,-26.1 -2.6,5.1 -0.9,9.2 0,16.4 -11.9,-7.7 -23.7,-23.1 -31,-33.5 0.9,4.7 1.5,10 2.1,15.9 -3.4,-6.1 -10.5,-11.4 -15.5,-13.8 -5.4,-2.6 -9.8,-13.4 -9.6,-15.3 -1.3,1.8 -0.3,11 -0.3,11 0,0 -16.2,-6.7 -23.3,-13.8 -6.5,-6.4 -10.4,-9.2 -13.3,-15.3 -3.4,-7.2 -1.9,-18.5 0.5,-23.4 0,0 -4.7,3.9 -6,10.8 -1.7,8.9 -1,13.8 -1,13.8 0,0 -31.9,-21.5 -28.1,-62.2 0.5,-5.4 4.2,-18.1 4.2,-18.1 0,0 -4.5,4 -6.5,10 -2.3,7.2 -2.1,13.1 -2.1,13.1 0,0 -8.9,-14.4 -10.2,-28.8 -2,-22.8 -0.3,-30.3 -0.3,-30.3 0,0 -1.7,1.1 -3,3.7 -0.9,1.8 -1.7,4.1 -1.8,7.1 -1.7,-1.2 -3.5,-9.8 -2.6,-18.7 0.7,-6.7 2.9,-8 2.9,-8 0,0 10.7,5.7 16,15.3 10.4,19 26.4,22.6 30.9,24.1 0.6,-4.1 -7.1,-17.4 -5.4,-26.8 1.5,-8.2 6.5,-8.6 2.2,-16.4 -2.6,-4.7 -13.4,-8.4 -23.4,-10.9 -2.5,-0.6 -7.4,-1.6 -8.9,-2 -6.1,-1.4 -10,-1.6 -13.1,-5.4 -2.8,-3.5 -2,-7 -2,-7 0,0 6,2.6 12.3,-1.5 8.1,-5.2 -1.7,-14 12.2,-26.4 8.6,-7.7 19.8,-6.1 19.8,-6.1 0,0 -6.8,-4.5 -14.8,-4.1 -7.4,0.3 -13,1.8 -21,11.4 4.2,-19.5 13.7,-26.4 23.6,-31.7 9.2,-4.9 24,-6.4 34,-5.6 0,0 -3.7,-5 -10.4,-7.1 -9.1,-3 -15.1,-2.2 -19.7,-0.5 3.4,-6.5 15.7,-12.6 32.4,-13.6 19.8,-1.2 36.5,5.7 36.5,5.7 0,0 1.1,-3.4 -5.5,-7.4 -8.3,-5 -19.1,-5.8 -23.5,-4.2 2.9,-3.8 15.3,-10 37.9,-6.5 13.9,2.2 19.9,4.7 19.9,4.7 0,0 -0.2,-3.9 -3.5,-6.5 -3.1,-2.5 -7.1,-3.6 -10.5,-4.2 2.2,-1.6 15.1,-3 27.6,-3.9 15.8,-1.1 34.3,-1.2 34.3,-1.2 0,0 18.5,0 34.3,1.2 12.5,0.9 25.4,2.2 27.6,3.9 -3.4,0.6 -7.4,1.7 -10.5,4.2 -3.3,2.6 -3.5,6.5 -3.5,6.5 0,0 6,-2.5 19.9,-4.7 22.5,-3.5 34.9,2.7 37.9,6.5 -4.5,-1.5 -15.2,-0.8 -23.5,4.2 -6.6,4 -5.5,7.4 -5.5,7.4 0,0 16.6,-7 36.5,-5.7 16.8,1 29,7.1 32.4,13.6 -4.6,-1.6 -10.6,-2.5 -19.7,0.5 -6.7,2.2 -10.4,7.1 -10.4,7.1 10,-0.8 24.8,0.7 34,5.6 9.9,5.3 19.4,12.2 23.6,31.7 -7.9,-9.6 -13.5,-11.1 -21,-11.4 -8,-0.4 -14.8,4.1 -14.8,4.1 0,0 11.3,-1.6 19.8,6.1 13.9,12.4 4.1,21.2 12.2,26.4 6.3,4 12.3,1.5 12.3,1.5 0,0 0.7,3.5 -2,7 -3,3.8 -6.9,4 -13.1,5.4 -1.6,0.4 -6.5,1.4 -8.9,2 -10,2.5 -20.8,6.3 -23.4,10.9 -4.3,7.7 0.7,8.1 2.2,16.4 1.7,9.4 -6,22.7 -5.4,26.8 4.5,-1.5 20.5,-5.1 30.9,-24.1 5.3,-9.6 16,-15.3 16,-15.3 0,0 1.9,1.2 2.6,7.9 z M 280.8,171.2 h 0.4 c 1.5,-6.1 2.7,-12 4,-18 1.4,-5.9 2.2,-11.9 4.1,-17.7 1.7,-5.8 4.4,-11.2 7.7,-16.3 3.4,-5.1 7.3,-9.8 12,-13.8 l -0.2,-0.3 c -5,3.6 -9.4,8.1 -13.3,13 -3.8,5 -7,10.5 -9.1,16.4 -2.2,5.9 -4.1,11.9 -5,18.1 -0.9,6.1 -1.3,12.3 -0.6,18.6 z m -12,87 h 0.4 c 2.6,-11.4 5.6,-22.7 9.2,-33.7 3.6,-11 7.5,-21.9 12.8,-32.2 5.4,-10.1 12.7,-19.4 20.9,-27.5 8.2,-8.2 17.3,-15.7 27.1,-22 l -0.2,-0.3 c -10.2,5.8 -19.6,12.9 -28.3,20.9 -8.6,8 -16.3,17.1 -22.3,27.4 -5.8,10.3 -10.7,21.2 -13.8,32.6 -1.6,5.7 -2.9,11.4 -3.9,17.2 -1,5.8 -1.7,11.7 -1.9,17.6 z M 203,105.4 c 4.6,4 8.6,8.8 12,13.8 3.4,5.1 6,10.5 7.7,16.3 1.8,5.8 2.7,11.8 4.1,17.7 1.3,5.9 2.5,11.9 4,18 h 0.4 c 0.7,-6.2 0.4,-12.5 -0.4,-18.7 -0.8,-6.2 -2.8,-12.2 -5,-18.1 -2.2,-5.9 -5.3,-11.5 -9.1,-16.4 -3.9,-4.9 -8.3,-9.3 -13.3,-13 z m -30.2,37.4 c 9.8,6.3 18.9,13.7 27.1,22 8.2,8.2 15.4,17.4 20.9,27.5 5.3,10.3 9.2,21.2 12.8,32.2 3.6,11 6.6,22.3 9.2,33.7 h 0.4 c -0.2,-5.9 -0.9,-11.7 -1.9,-17.5 -1,-5.8 -2.3,-11.6 -3.9,-17.2 -3.2,-11.4 -8,-22.3 -13.8,-32.6 -6,-10.3 -13.7,-19.4 -22.3,-27.4 -8.7,-8 -18.1,-15 -28.3,-20.9 z m -43,30.3 c 7.5,1.7 14.8,4.3 21.4,8.1 6.7,3.6 12.3,8.8 18.1,13.9 5.7,5.1 11.1,10.6 16.6,16.2 l 0.3,-0.2 c -1.9,-3.5 -4,-6.8 -6.4,-9.9 -2.4,-3.1 -5,-6.1 -7.7,-8.9 -5.5,-5.7 -12.2,-10.3 -19.4,-13.8 -7.1,-3.6 -14.8,-5.8 -22.5,-7.2 -7.8,-1.2 -15.6,-1.7 -23.4,-0.9 v 0.4 c 7.7,-0.4 15.5,0.5 23,2.3 z m 141.3,208.2 c -2.6,0.7 -5.1,0.7 -7.6,0.9 -2.5,0.1 -5,0 -7.5,0 0,0 0,0 0,0 0,0 0,0 0,0 -2.5,0 -5,0.1 -7.5,0 -2.5,-0.1 -5,-0.1 -7.6,-0.9 0.8,1.1 2.1,1.8 3.3,2.5 1.2,0.6 2.5,1.1 3.8,1.4 2.6,0.7 5.3,1 8,1 0,0 0,0 0,0 0,0 0,0 0,0 2.7,0 5.3,-0.3 8,-1 1.3,-0.3 2.6,-0.8 3.8,-1.4 1.2,-0.7 2.4,-1.4 3.3,-2.5 z M 381.8,213.4 c -11.3,0.2 -17.5,0.8 -29.3,3 -17.4,3.2 -24.3,6.4 -37.3,12.2 -12.2,5.5 -20.2,15.3 -23.7,29.6 -0.6,2.5 -1.3,5.4 -2,8.4 0,0.1 0,0.1 0,0.2 -0.1,0.6 -0.3,1.3 -0.4,1.9 0,0.2 -0.1,0.3 -0.1,0.5 -0.1,0.6 -0.3,1.2 -0.4,1.8 0,0.1 0,0.2 -0.1,0.3 -0.2,0.7 -0.3,1.5 -0.5,2.2 0,0.1 0,0.2 -0.1,0.3 -0.1,0.7 -0.3,1.3 -0.4,2 -3,14.6 -5.6,29.3 -5.6,29.3 0,0 -1.3,-1.5 -3.4,-2.2 2,-13.7 -0.4,-24.1 -0.4,-24.1 0,0 -1.8,21.2 -3.1,23.3 -2.4,-0.4 -3.7,-0.3 -6,-0.5 -2.6,-0.2 -4.3,-0.2 -6.6,-0.3 0.3,-3.3 -1,-5.7 -1,-5.7 0,0 -1,5.7 -1.5,5.7 -2,0 -4.1,0 -4.1,0 v 0 c 0,0 -2.1,0.1 -4.1,0 -0.4,0 -1.5,-5.7 -1.5,-5.7 0,0 -1.3,2.5 -1,5.7 -2.3,0.1 -4,0.1 -6.6,0.3 -2.3,0.2 -3.6,0 -6,0.5 -1.3,-2 -3.1,-23.3 -3.1,-23.3 0,0 -2.4,10.4 -0.4,24.1 -2.1,0.7 -3.4,2.2 -3.4,2.2 0,0 -2.6,-14.7 -5.6,-29.3 -0.1,-0.7 -0.3,-1.4 -0.4,-2 0,-0.1 0,-0.2 -0.1,-0.3 -0.2,-0.7 -0.3,-1.5 -0.5,-2.2 0,-0.1 0,-0.2 -0.1,-0.3 -0.1,-0.6 -0.3,-1.2 -0.4,-1.8 0,-0.2 -0.1,-0.3 -0.1,-0.5 -0.1,-0.7 -0.3,-1.3 -0.4,-1.9 0,-0.1 0,-0.1 0,-0.2 -0.7,-3 -1.3,-5.9 -2,-8.4 -3.6,-14.3 -11.5,-24.2 -23.7,-29.6 -12.9,-5.8 -19.9,-9 -37.3,-12.2 -11.8,-2.2 -18,-2.8 -29.3,-3 -6.2,15.6 -2.9,30.5 7.3,45.8 4.3,6.5 5.7,12.7 11.3,18.8 1.1,1.2 11.2,4.2 13.2,6 2,1.8 12.7,27.7 11.9,36 0.3,1.1 0.6,2.3 1,3.6 -2.8,0.8 -8.3,2.4 -13.8,4.2 -13.1,4.4 -25.9,10.7 -25.2,10.8 0,0 15.4,-4.3 24.5,-7.1 7,-2.2 12.6,-3.4 15.6,-4 1.7,5.6 4.1,11.9 7.1,17.8 -1.3,0.5 -2.9,1.2 -5,2.1 -8.9,3.9 -21.7,12.6 -21.7,12.6 0,0 10.5,-4.1 22.9,-8.5 2.4,-0.8 4.4,-1.5 6.1,-2 1.5,2.5 3.1,4.8 4.9,6.9 1.8,2 4.3,5.3 7.9,8.8 -1,0.7 -2.1,1.4 -2.8,1.9 -2.9,2.2 -11.7,10.6 -11.7,10.6 0,0 9,-4.9 12.4,-7 1.7,-1 3.4,-2.1 4.8,-3 3.9,3.4 8.9,6.9 15.3,9.7 8.2,3.6 14,-2.4 21.3,-5.3 7.7,-3 13.7,-5.2 13.7,-5.2 l 4.7,-0.5 4.7,0.5 c 0,0 6,2.2 13.7,5.2 7.4,2.8 13.2,8.8 21.3,5.3 6.4,-2.8 11.4,-6.3 15.3,-9.7 1.4,0.9 3.1,2 4.8,3 3.4,2.1 12.4,7 12.4,7 0,0 -8.8,-8.4 -11.7,-10.6 -0.7,-0.5 -1.7,-1.2 -2.8,-1.9 3.6,-3.5 6.1,-6.8 7.9,-8.8 1.8,-2.1 3.4,-4.4 4.9,-6.9 1.7,0.5 3.7,1.2 6.1,2 12.4,4.3 22.9,8.5 22.9,8.5 0,0 -12.7,-8.7 -21.7,-12.6 -2.1,-0.9 -3.7,-1.6 -5,-2.1 3,-5.9 5.4,-12.2 7.1,-17.8 3,0.6 8.7,1.8 15.6,4 9.1,2.8 24.5,7.1 24.5,7.1 0.6,-0.1 -12.1,-6.4 -25.2,-10.8 -5.5,-1.8 -11,-3.4 -13.8,-4.2 0.4,-1.3 0.7,-2.5 1,-3.6 -0.9,-8.3 9.9,-34.2 11.9,-36 2,-1.8 12.1,-4.8 13.2,-6 5.5,-6.2 6.9,-12.3 11.3,-18.8 10.8,-15.3 14.2,-30.2 7.9,-45.8 z m 23.4,-42.7 v -0.4 c -7.8,-0.8 -15.7,-0.4 -23.4,0.9 -7.7,1.4 -15.4,3.7 -22.5,7.2 -7.1,3.5 -13.8,8.1 -19.4,13.8 -2.8,2.8 -5.4,5.8 -7.7,8.9 -2.4,3.1 -4.6,6.4 -6.4,9.9 l 0.3,0.2 c 5.5,-5.6 10.9,-11.1 16.6,-16.2 5.7,-5.1 11.3,-10.3 18.1,-13.9 6.6,-3.8 13.9,-6.3 21.4,-8.1 7.5,-1.7 15.3,-2.6 23,-2.3 z"
   id="path1" /></g></g></g><style
     type="text/css"
     id="style1">	.st0{fill:#FA6149;}</style></svg>
